<svg id="bold" enable-background="new 0 0 32 32" height="512" viewBox="0 0 32 32" width="512" xmlns="http://www.w3.org/2000/svg"><path d="m26 32h-20c-3.314 0-6-2.686-6-6v-20c0-3.314 2.686-6 6-6h20c3.314 0 6 2.686 6 6v20c0 3.314-2.686 6-6 6z" fill="#ffe6e2"/><path d="m16 8c-3.308 0-6 2.658-6 5.925 0 4.633 5.429 9.727 5.66 9.941.096.089.218.134.34.134s.244-.045.34-.133c.231-.215 5.66-5.308 5.66-9.941 0-3.268-2.692-5.926-6-5.926zm1.36 9.927c0 .407-.333.74-.747.74h-1.227c-.36 0-.747-.267-.747-.86v-.36h2.72v.48zm.54-1.973c-.28.227-.46.52-.52.827h-2.753c-.047-.3-.213-.58-.487-.793-.74-.58-1.16-1.453-1.14-2.4.033-1.587 1.36-2.9 2.953-2.92.807-.02 1.58.293 2.16.867.574.559.887 1.312.887 2.112 0 .9-.4 1.74-1.1 2.307z" fill="#fc573b"/></svg>